<mxfile host="app.diagrams.net" agent="Mozilla/5.0 (Windows NT 10.0; Win64; x64) AppleWebKit/537.36 (KHTML, like Gecko) Chrome/132.0.0.0 Safari/537.36 Edg/132.0.0.0" version="26.0.11">
  <diagram name="P치gina-1" id="pbbyGfIUdUq83uEfK6JR">
    <mxGraphModel grid="1" page="1" gridSize="10" guides="1" tooltips="1" connect="1" arrows="1" fold="1" pageScale="1" pageWidth="3300" pageHeight="4681" math="0" shadow="0">
      <root>
        <mxCell id="0" />
        <mxCell id="1" parent="0" />
        <mxCell id="5PyOFVKAX4IqCxTro5Iq-21" value="" style="edgeStyle=orthogonalEdgeStyle;rounded=0;orthogonalLoop=1;jettySize=auto;html=1;" edge="1" parent="1" source="5PyOFVKAX4IqCxTro5Iq-1" target="5PyOFVKAX4IqCxTro5Iq-4">
          <mxGeometry relative="1" as="geometry" />
        </mxCell>
        <mxCell id="5PyOFVKAX4IqCxTro5Iq-1" value="" style="rounded=1;whiteSpace=wrap;html=1;" vertex="1" parent="1">
          <mxGeometry x="280" y="50" width="120" height="60" as="geometry" />
        </mxCell>
        <mxCell id="5PyOFVKAX4IqCxTro5Iq-2" value="Examinar el proceso&amp;nbsp;" style="text;html=1;align=center;verticalAlign=middle;whiteSpace=wrap;rounded=0;" vertex="1" parent="1">
          <mxGeometry x="310" y="65" width="60" height="30" as="geometry" />
        </mxCell>
        <mxCell id="5PyOFVKAX4IqCxTro5Iq-22" value="" style="edgeStyle=orthogonalEdgeStyle;rounded=0;orthogonalLoop=1;jettySize=auto;html=1;" edge="1" parent="1" source="5PyOFVKAX4IqCxTro5Iq-3" target="5PyOFVKAX4IqCxTro5Iq-6">
          <mxGeometry relative="1" as="geometry" />
        </mxCell>
        <mxCell id="5PyOFVKAX4IqCxTro5Iq-3" value="" style="rounded=1;whiteSpace=wrap;html=1;" vertex="1" parent="1">
          <mxGeometry x="280" y="150" width="120" height="60" as="geometry" />
        </mxCell>
        <mxCell id="5PyOFVKAX4IqCxTro5Iq-4" value="Dividir en tareas el proceso&amp;nbsp;" style="text;html=1;align=center;verticalAlign=middle;whiteSpace=wrap;rounded=0;" vertex="1" parent="1">
          <mxGeometry x="295" y="165" width="90" height="30" as="geometry" />
        </mxCell>
        <mxCell id="5PyOFVKAX4IqCxTro5Iq-23" value="" style="edgeStyle=orthogonalEdgeStyle;rounded=0;orthogonalLoop=1;jettySize=auto;html=1;" edge="1" parent="1" source="5PyOFVKAX4IqCxTro5Iq-5" target="5PyOFVKAX4IqCxTro5Iq-8">
          <mxGeometry relative="1" as="geometry" />
        </mxCell>
        <mxCell id="5PyOFVKAX4IqCxTro5Iq-5" value="" style="rounded=1;whiteSpace=wrap;html=1;" vertex="1" parent="1">
          <mxGeometry x="280" y="260" width="120" height="60" as="geometry" />
        </mxCell>
        <mxCell id="5PyOFVKAX4IqCxTro5Iq-6" value="Crear rutinas para cada tarea" style="text;html=1;align=center;verticalAlign=middle;whiteSpace=wrap;rounded=0;" vertex="1" parent="1">
          <mxGeometry x="300" y="275" width="80" height="30" as="geometry" />
        </mxCell>
        <mxCell id="5PyOFVKAX4IqCxTro5Iq-25" value="" style="edgeStyle=orthogonalEdgeStyle;rounded=0;orthogonalLoop=1;jettySize=auto;html=1;" edge="1" parent="1" source="5PyOFVKAX4IqCxTro5Iq-7" target="5PyOFVKAX4IqCxTro5Iq-10">
          <mxGeometry relative="1" as="geometry" />
        </mxCell>
        <mxCell id="5PyOFVKAX4IqCxTro5Iq-7" value="" style="rounded=1;whiteSpace=wrap;html=1;" vertex="1" parent="1">
          <mxGeometry x="280" y="370" width="120" height="60" as="geometry" />
        </mxCell>
        <mxCell id="5PyOFVKAX4IqCxTro5Iq-8" value="Plantear la viabilidad de cada rutina&amp;nbsp;" style="text;html=1;align=center;verticalAlign=middle;whiteSpace=wrap;rounded=0;" vertex="1" parent="1">
          <mxGeometry x="280" y="385" width="120" height="30" as="geometry" />
        </mxCell>
        <mxCell id="5PyOFVKAX4IqCxTro5Iq-26" value="" style="edgeStyle=orthogonalEdgeStyle;rounded=0;orthogonalLoop=1;jettySize=auto;html=1;" edge="1" parent="1" source="5PyOFVKAX4IqCxTro5Iq-9" target="5PyOFVKAX4IqCxTro5Iq-12">
          <mxGeometry relative="1" as="geometry" />
        </mxCell>
        <mxCell id="5PyOFVKAX4IqCxTro5Iq-28" style="edgeStyle=orthogonalEdgeStyle;rounded=0;orthogonalLoop=1;jettySize=auto;html=1;entryX=0;entryY=0.5;entryDx=0;entryDy=0;" edge="1" parent="1" source="5PyOFVKAX4IqCxTro5Iq-9" target="5PyOFVKAX4IqCxTro5Iq-19">
          <mxGeometry relative="1" as="geometry" />
        </mxCell>
        <mxCell id="5PyOFVKAX4IqCxTro5Iq-32" style="edgeStyle=orthogonalEdgeStyle;rounded=0;orthogonalLoop=1;jettySize=auto;html=1;entryX=0.5;entryY=0;entryDx=0;entryDy=0;" edge="1" parent="1" target="5PyOFVKAX4IqCxTro5Iq-31">
          <mxGeometry relative="1" as="geometry">
            <mxPoint x="340" y="580" as="sourcePoint" />
          </mxGeometry>
        </mxCell>
        <mxCell id="5PyOFVKAX4IqCxTro5Iq-9" value="" style="rhombus;whiteSpace=wrap;html=1;" vertex="1" parent="1">
          <mxGeometry x="260" y="480" width="160" height="80" as="geometry" />
        </mxCell>
        <mxCell id="5PyOFVKAX4IqCxTro5Iq-10" value="Hay rutinas viables para automatizar" style="text;html=1;align=center;verticalAlign=middle;whiteSpace=wrap;rounded=0;" vertex="1" parent="1">
          <mxGeometry x="280" y="505" width="120" height="30" as="geometry" />
        </mxCell>
        <mxCell id="5PyOFVKAX4IqCxTro5Iq-27" value="" style="edgeStyle=orthogonalEdgeStyle;rounded=0;orthogonalLoop=1;jettySize=auto;html=1;" edge="1" parent="1" source="5PyOFVKAX4IqCxTro5Iq-11" target="5PyOFVKAX4IqCxTro5Iq-16">
          <mxGeometry relative="1" as="geometry" />
        </mxCell>
        <mxCell id="5PyOFVKAX4IqCxTro5Iq-11" value="" style="rounded=1;whiteSpace=wrap;html=1;" vertex="1" parent="1">
          <mxGeometry x="267.5" y="610" width="145" height="60" as="geometry" />
        </mxCell>
        <mxCell id="5PyOFVKAX4IqCxTro5Iq-12" value="Identificar&amp;nbsp; habilidades cognitivas y motoras de las rutinas&amp;nbsp;" style="text;html=1;align=center;verticalAlign=middle;whiteSpace=wrap;rounded=0;" vertex="1" parent="1">
          <mxGeometry x="275" y="620" width="130" height="40" as="geometry" />
        </mxCell>
        <mxCell id="5PyOFVKAX4IqCxTro5Iq-35" style="edgeStyle=orthogonalEdgeStyle;rounded=0;orthogonalLoop=1;jettySize=auto;html=1;entryX=0.5;entryY=0;entryDx=0;entryDy=0;" edge="1" parent="1" source="5PyOFVKAX4IqCxTro5Iq-16" target="5PyOFVKAX4IqCxTro5Iq-34">
          <mxGeometry relative="1" as="geometry" />
        </mxCell>
        <mxCell id="5PyOFVKAX4IqCxTro5Iq-16" value="Crear un diagrama de flujo de la tarea realizada&amp;nbsp;" style="rounded=1;whiteSpace=wrap;html=1;" vertex="1" parent="1">
          <mxGeometry x="280" y="720" width="120" height="60" as="geometry" />
        </mxCell>
        <mxCell id="5PyOFVKAX4IqCxTro5Iq-30" style="edgeStyle=orthogonalEdgeStyle;rounded=0;orthogonalLoop=1;jettySize=auto;html=1;entryX=1;entryY=0.5;entryDx=0;entryDy=0;" edge="1" parent="1" source="5PyOFVKAX4IqCxTro5Iq-18" target="5PyOFVKAX4IqCxTro5Iq-8">
          <mxGeometry relative="1" as="geometry">
            <Array as="points">
              <mxPoint x="580" y="400" />
            </Array>
          </mxGeometry>
        </mxCell>
        <mxCell id="5PyOFVKAX4IqCxTro5Iq-18" value="" style="rounded=1;whiteSpace=wrap;html=1;" vertex="1" parent="1">
          <mxGeometry x="520" y="490" width="120" height="60" as="geometry" />
        </mxCell>
        <mxCell id="5PyOFVKAX4IqCxTro5Iq-19" value="Redise침ar rutinas del ensamble&amp;nbsp;" style="text;html=1;align=center;verticalAlign=middle;whiteSpace=wrap;rounded=0;" vertex="1" parent="1">
          <mxGeometry x="520" y="505" width="120" height="30" as="geometry" />
        </mxCell>
        <mxCell id="5PyOFVKAX4IqCxTro5Iq-40" style="edgeStyle=orthogonalEdgeStyle;rounded=0;orthogonalLoop=1;jettySize=auto;html=1;entryX=0.5;entryY=0;entryDx=0;entryDy=0;" edge="1" parent="1" source="5PyOFVKAX4IqCxTro5Iq-31" target="5PyOFVKAX4IqCxTro5Iq-38">
          <mxGeometry relative="1" as="geometry" />
        </mxCell>
        <mxCell id="5PyOFVKAX4IqCxTro5Iq-31" value="Identificar los elementos de la celda de trabajo (espacios de trabajo, herramientas, etc)" style="rounded=1;whiteSpace=wrap;html=1;" vertex="1" parent="1">
          <mxGeometry x="520" y="720" width="130" height="70" as="geometry" />
        </mxCell>
        <mxCell id="5PyOFVKAX4IqCxTro5Iq-33" value="Las rutinas deben ser viables econ칩micamente y las propuestas deben ser evaluadas por niveles altos de pir치mide" style="text;html=1;align=center;verticalAlign=middle;whiteSpace=wrap;rounded=0;" vertex="1" parent="1">
          <mxGeometry x="590" y="350" width="140" height="75" as="geometry" />
        </mxCell>
        <mxCell id="5PyOFVKAX4IqCxTro5Iq-37" value="" style="edgeStyle=orthogonalEdgeStyle;rounded=0;orthogonalLoop=1;jettySize=auto;html=1;" edge="1" parent="1" source="5PyOFVKAX4IqCxTro5Iq-34" target="5PyOFVKAX4IqCxTro5Iq-36">
          <mxGeometry relative="1" as="geometry" />
        </mxCell>
        <mxCell id="5PyOFVKAX4IqCxTro5Iq-34" value="Identificar piezas usadas en el proceso" style="rounded=1;whiteSpace=wrap;html=1;" vertex="1" parent="1">
          <mxGeometry x="280" y="830" width="120" height="60" as="geometry" />
        </mxCell>
        <mxCell id="5PyOFVKAX4IqCxTro5Iq-48" style="edgeStyle=orthogonalEdgeStyle;rounded=0;orthogonalLoop=1;jettySize=auto;html=1;entryX=0.5;entryY=0;entryDx=0;entryDy=0;" edge="1" parent="1" source="5PyOFVKAX4IqCxTro5Iq-36" target="5PyOFVKAX4IqCxTro5Iq-47">
          <mxGeometry relative="1" as="geometry">
            <Array as="points">
              <mxPoint x="340" y="1030" />
              <mxPoint x="475" y="1030" />
            </Array>
          </mxGeometry>
        </mxCell>
        <mxCell id="5PyOFVKAX4IqCxTro5Iq-36" value="Identificar como integrar el proceso" style="rounded=1;whiteSpace=wrap;html=1;" vertex="1" parent="1">
          <mxGeometry x="280" y="940" width="120" height="60" as="geometry" />
        </mxCell>
        <mxCell id="5PyOFVKAX4IqCxTro5Iq-43" value="" style="edgeStyle=orthogonalEdgeStyle;rounded=0;orthogonalLoop=1;jettySize=auto;html=1;" edge="1" parent="1" source="5PyOFVKAX4IqCxTro5Iq-38" target="5PyOFVKAX4IqCxTro5Iq-41">
          <mxGeometry relative="1" as="geometry" />
        </mxCell>
        <mxCell id="5PyOFVKAX4IqCxTro5Iq-49" style="edgeStyle=orthogonalEdgeStyle;rounded=0;orthogonalLoop=1;jettySize=auto;html=1;entryX=0.5;entryY=0;entryDx=0;entryDy=0;" edge="1" parent="1" source="5PyOFVKAX4IqCxTro5Iq-38" target="5PyOFVKAX4IqCxTro5Iq-47">
          <mxGeometry relative="1" as="geometry">
            <Array as="points">
              <mxPoint x="585" y="1030" />
              <mxPoint x="475" y="1030" />
            </Array>
          </mxGeometry>
        </mxCell>
        <mxCell id="5PyOFVKAX4IqCxTro5Iq-38" value="" style="rhombus;whiteSpace=wrap;html=1;" vertex="1" parent="1">
          <mxGeometry x="520" y="840" width="130" height="80" as="geometry" />
        </mxCell>
        <mxCell id="5PyOFVKAX4IqCxTro5Iq-39" value="Hay ineficiencias en las celdas?" style="text;html=1;align=center;verticalAlign=middle;whiteSpace=wrap;rounded=0;" vertex="1" parent="1">
          <mxGeometry x="535" y="865" width="100" height="30" as="geometry" />
        </mxCell>
        <mxCell id="5PyOFVKAX4IqCxTro5Iq-45" style="edgeStyle=orthogonalEdgeStyle;rounded=0;orthogonalLoop=1;jettySize=auto;html=1;entryX=1;entryY=0.5;entryDx=0;entryDy=0;" edge="1" parent="1" source="5PyOFVKAX4IqCxTro5Iq-41" target="5PyOFVKAX4IqCxTro5Iq-31">
          <mxGeometry relative="1" as="geometry">
            <Array as="points">
              <mxPoint x="780" y="755" />
            </Array>
          </mxGeometry>
        </mxCell>
        <mxCell id="5PyOFVKAX4IqCxTro5Iq-41" value="Redise침ar la celda de trabajo" style="rounded=1;whiteSpace=wrap;html=1;" vertex="1" parent="1">
          <mxGeometry x="720" y="850" width="120" height="60" as="geometry" />
        </mxCell>
        <mxCell id="5PyOFVKAX4IqCxTro5Iq-44" value="si" style="text;html=1;align=center;verticalAlign=middle;whiteSpace=wrap;rounded=0;" vertex="1" parent="1">
          <mxGeometry x="650" y="880" width="60" height="30" as="geometry" />
        </mxCell>
        <mxCell id="5PyOFVKAX4IqCxTro5Iq-46" value="No" style="text;html=1;align=center;verticalAlign=middle;whiteSpace=wrap;rounded=0;" vertex="1" parent="1">
          <mxGeometry x="520" y="940" width="60" height="30" as="geometry" />
        </mxCell>
        <mxCell id="5PyOFVKAX4IqCxTro5Iq-51" value="" style="edgeStyle=orthogonalEdgeStyle;rounded=0;orthogonalLoop=1;jettySize=auto;html=1;" edge="1" parent="1" source="5PyOFVKAX4IqCxTro5Iq-47" target="5PyOFVKAX4IqCxTro5Iq-50">
          <mxGeometry relative="1" as="geometry" />
        </mxCell>
        <mxCell id="5PyOFVKAX4IqCxTro5Iq-47" value="Identificar grados de libertad y alcance necesario&amp;nbsp;" style="rounded=1;whiteSpace=wrap;html=1;" vertex="1" parent="1">
          <mxGeometry x="415" y="1070" width="120" height="60" as="geometry" />
        </mxCell>
        <mxCell id="5PyOFVKAX4IqCxTro5Iq-53" value="" style="edgeStyle=orthogonalEdgeStyle;rounded=0;orthogonalLoop=1;jettySize=auto;html=1;" edge="1" parent="1" source="5PyOFVKAX4IqCxTro5Iq-50" target="5PyOFVKAX4IqCxTro5Iq-52">
          <mxGeometry relative="1" as="geometry" />
        </mxCell>
        <mxCell id="5PyOFVKAX4IqCxTro5Iq-50" value="Escoger robots, sensores y controladores" style="rounded=1;whiteSpace=wrap;html=1;" vertex="1" parent="1">
          <mxGeometry x="415" y="1180" width="120" height="60" as="geometry" />
        </mxCell>
        <mxCell id="5PyOFVKAX4IqCxTro5Iq-55" value="" style="edgeStyle=orthogonalEdgeStyle;rounded=0;orthogonalLoop=1;jettySize=auto;html=1;" edge="1" parent="1" source="5PyOFVKAX4IqCxTro5Iq-52" target="5PyOFVKAX4IqCxTro5Iq-54">
          <mxGeometry relative="1" as="geometry" />
        </mxCell>
        <mxCell id="5PyOFVKAX4IqCxTro5Iq-52" value="Adaptar movimientos a programas del robot" style="rounded=1;whiteSpace=wrap;html=1;" vertex="1" parent="1">
          <mxGeometry x="580" y="1180" width="120" height="60" as="geometry" />
        </mxCell>
        <mxCell id="5PyOFVKAX4IqCxTro5Iq-57" value="" style="edgeStyle=orthogonalEdgeStyle;rounded=0;orthogonalLoop=1;jettySize=auto;html=1;" edge="1" parent="1" source="5PyOFVKAX4IqCxTro5Iq-54" target="5PyOFVKAX4IqCxTro5Iq-56">
          <mxGeometry relative="1" as="geometry" />
        </mxCell>
        <mxCell id="5PyOFVKAX4IqCxTro5Iq-54" value="Escoger o dise침ar un gripper adecuado" style="rounded=1;whiteSpace=wrap;html=1;" vertex="1" parent="1">
          <mxGeometry x="740" y="1180" width="120" height="60" as="geometry" />
        </mxCell>
        <mxCell id="5PyOFVKAX4IqCxTro5Iq-59" value="" style="edgeStyle=orthogonalEdgeStyle;rounded=0;orthogonalLoop=1;jettySize=auto;html=1;" edge="1" parent="1" source="5PyOFVKAX4IqCxTro5Iq-56" target="5PyOFVKAX4IqCxTro5Iq-58">
          <mxGeometry relative="1" as="geometry" />
        </mxCell>
        <mxCell id="5PyOFVKAX4IqCxTro5Iq-56" value="Evaluar posibles alternativas" style="rounded=1;whiteSpace=wrap;html=1;" vertex="1" parent="1">
          <mxGeometry x="740" y="1280" width="120" height="60" as="geometry" />
        </mxCell>
        <mxCell id="5PyOFVKAX4IqCxTro5Iq-58" value="Implementar" style="rounded=1;whiteSpace=wrap;html=1;" vertex="1" parent="1">
          <mxGeometry x="580" y="1280" width="120" height="60" as="geometry" />
        </mxCell>
      </root>
    </mxGraphModel>
  </diagram>
</mxfile>
